Coordinates
version=1
nRows=11
nColumns=40
inDegrees=yes

Units are S.I. units (second, meters, Newtons, ...)
If the header above contains a line with 'inDegrees', this indicates whether rotational values are in degrees (yes) or radians (no).

endheader
time	pelvis_tilt	pelvis_list	pelvis_rotation	pelvis_tx	pelvis_ty	pelvis_tz	hip_flexion_r	hip_adduction_r	hip_rotation_r	knee_angle_r	knee_angle_r_beta	ankle_angle_r	subtalar_angle_r	mtp_angle_r	hip_flexion_l	hip_adduction_l	hip_rotation_l	knee_angle_l	knee_angle_l_beta	ankle_angle_l	subtalar_angle_l	mtp_angle_l	lumbar_extension	lumbar_bending	lumbar_rotation	arm_flex_r	arm_add_r	arm_rot_r	elbow_flex_r	pro_sup_r	wrist_flex_r	wrist_dev_r	arm_flex_l	arm_add_l	arm_rot_l	elbow_flex_l	pro_sup_l	wrist_flex_l	wrist_dev_l
      0.13000000	     -0.51328667	      9.26887190	    -89.90821412	      0.22486012	      0.88676864	     -0.74170314	    -14.08566822	      4.44686590	     -1.22246998	     -7.92096111	     -0.13824685	     14.36674851	     -0.00000000	      0.00000000	     40.90920202	     -1.86846334	     -1.70667371	     11.99103407	      0.20928303	      3.01270037	      0.00000000	      0.00000000	     -3.79818645	     -0.48538507	     -3.53710350	     -0.00000000	     -0.00000000	     -0.00000000	      0.00000000	      0.00000000	      0.00000000	      0.00000000	     -0.00000000	      0.00000000	     -0.00000000	      0.00000000	      0.00000000	      0.00000000	     -0.00000000
      0.14000000	     -0.81829147	      9.25264801	    -89.91179197	      0.22509968	      0.88198852	     -0.72451797	    -15.32559120	      4.73362199	     -1.00832695	     -7.77148920	     -0.13563807	     15.06185953	      0.00000000	      0.00000000	     41.09957912	     -1.88868830	     -0.46180864	     10.52220681	      0.18364715	      3.42501497	      0.00000000	      0.00000000	     -3.72479805	     -0.17721465	     -3.38172845	      0.00000000	      0.00000000	      0.00000000	      0.00000000	      0.00000000	      0.00000000	      0.00000000	      0.00000000	      0.00000000	      0.00000000	      0.00000000	      0.00000000	      0.00000000	      0.00000000
      0.15000000	     -1.00845986	      9.20441485	    -89.91547725	      0.22544082	      0.87748109	     -0.70725514	    -16.43032984	      4.85464243	     -0.83616816	     -7.29991925	     -0.12740763	     15.68109625	      0.00000000	      0.00000000	     41.29265469	     -1.77868672	      0.81913006	      9.77537079	      0.17061241	      3.58142046	      0.00000000	      0.00000000	     -3.72022331	     -0.02114360	     -3.31326886	      0.00000000	      0.00000000	      0.00000000	      0.00000000	      0.00000000	      0.00000000	      0.00000000	      0.00000000	      0.00000000	      0.00000000	      0.00000000	      0.00000000	      0.00000000	      0.00000000
      0.16000000	     -1.08555852	      9.13905471	    -89.91796978	      0.22594248	      0.87337665	     -0.68974343	    -17.43866581	      4.81100347	     -0.60674727	     -6.57568506	     -0.11476735	     16.29717803	      0.00000000	      0.00000000	     41.45440783	     -1.51832987	      2.07659893	      9.65262710	      0.16847012	      3.40993092	      0.00000000	      0.00000000	     -3.71109883	      0.00741720	     -3.28346989	      0.00000000	      0.00000000	      0.00000000	      0.00000000	      0.00000000	      0.00000000	      0.00000000	      0.00000000	      0.00000000	      0.00000000	      0.00000000	      0.00000000	      0.00000000	      0.00000000
      0.17000000	     -1.10152337	      9.22662513	    -89.92062689	      0.22648416	      0.86945789	     -0.67213528	    -18.09834197	      4.66987391	     -0.51575517	     -5.59226736	     -0.09760348	     16.13504530	      0.00000000	      0.00000000	     41.90355233	     -1.20705824	      2.82753975	     10.35720674	      0.18076736	      2.95598485	      0.00000000	      0.00000000	     -3.50217620	     -0.05516831	     -3.30592933	      0.00000000	      0.00000000	      0.00000000	      0.00000000	      0.00000000	      0.00000000	      0.00000000	      0.00000000	      0.00000000	      0.00000000	      0.00000000	      0.00000000	      0.00000000	      0.00000000
      0.18000000	     -1.09295607	      9.08317241	    -89.92090940	      0.22719503	      0.86646492	     -0.65427469	    -18.87483826	      4.45813034	     -0.06048853	     -4.24992283	     -0.07417515	     16.99229008	      0.00000000	      0.00000000	     41.89335703	     -0.79268559	      4.06149940	     11.16449358	      0.19485717	      1.66407667	      0.00000000	      0.00000000	     -3.56340190	     -0.12473950	     -3.26502245	      0.00000000	      0.00000000	      0.00000000	      0.00000000	      0.00000000	      0.00000000	      0.00000000	      0.00000000	      0.00000000	      0.00000000	      0.00000000	      0.00000000	      0.00000000	      0.00000000
      0.19000000	     -0.96383609	      9.09435864	    -89.92163369	      0.22799763	      0.86381921	     -0.63615761	    -19.29310910	      4.09603535	      0.27236931	     -2.69599694	     -0.04705402	     16.44425508	     -0.00000000	     -0.00000000	     42.11321286	     -0.26710730	      4.80941845	     12.61782233	      0.22022254	      0.74157085	      0.00000000	     -0.00000000	     -3.39995009	     -0.35760368	     -3.28988892	      0.00000000	     -0.00000000	      0.00000000	      0.00000000	      0.00000000	      0.00000000	     -0.00000000	     -0.00000000	      0.00000000	      0.00000000	      0.00000000	      0.00000000	      0.00000000	      0.00000000
      0.20000000	     -0.98801766	      8.91646931	    -89.92059008	      0.22855092	      0.86208088	     -0.61787072	    -19.61132886	      3.89472428	      0.44123020	     -0.59614506	     -0.01040469	     16.56144510	      0.00000000	      0.00000000	     42.16958170	      0.02835578	      5.05558857	     14.34251357	      0.25032408	     -1.81016971	      0.00000000	      0.00000000	     -3.46147041	     -0.42931307	     -3.30088279	      0.00000000	      0.00000000	      0.00000000	      0.00000000	      0.00000000	      0.00000000	      0.00000000	      0.00000000	      0.00000000	      0.00000000	      0.00000000	      0.00000000	      0.00000000	      0.00000000
      0.21000000	     -0.96373902	      8.75317404	    -89.91875548	      0.22911540	      0.86102765	     -0.59929166	    -19.65092372	      3.62086700	      0.59090397	      1.83987737	      0.03211192	     15.78873353	      0.00000000	      0.00000000	     42.17917558	      0.35602526	      5.30902932	     16.33092448	      0.28502840	     -3.73209239	      0.00000000	      0.00000000	     -3.45755409	     -0.57487096	     -3.31043405	      0.00000000	      0.00000000	      0.00000000	      0.00000000	      0.00000000	      0.00000000	      0.00000000	      0.00000000	      0.00000000	      0.00000000	      0.00000000	      0.00000000	      0.00000000	      0.00000000
      0.22000000	     -1.03579258	      8.53600869	    -89.91685768	      0.22951066	      0.86080879	     -0.58053726	    -19.34941838	      3.42909456	      0.57081728	      4.85013796	      0.08465088	     14.55351734	      0.00000000	      0.00000000	     42.09466203	      0.52065339	      5.42056272	     18.47880892	      0.32251606	     -5.39874102	      0.00000000	      0.00000000	     -3.49771945	     -0.63371016	     -3.32457777	      0.00000000	      0.00000000	      0.00000000	      0.00000000	      0.00000000	      0.00000000	      0.00000000	      0.00000000	      0.00000000	      0.00000000	      0.00000000	      0.00000000	      0.00000000	      0.00000000
      0.23000000	     -1.18038465	      8.18682367	    -89.91410604	      0.22978004	      0.86152377	     -0.56162332	    -18.77325304	      3.27560680	      0.28643263	      8.41104674	      0.14680046	     12.69478517	      0.00000000	      0.00000000	     41.81915487	      0.54629361	      5.44229362	     20.76595095	      0.36243422	     -6.34499285	      0.00000000	      0.00000000	     -3.68259861	     -0.62049121	     -3.33082908	      0.00000000	      0.00000000	      0.00000000	      0.00000000	      0.00000000	      0.00000000	      0.00000000	      0.00000000	      0.00000000	      0.00000000	      0.00000000	      0.00000000	      0.00000000	      0.00000000
